<svg xmlns="http://www.w3.org/2000/svg" width="19.999" height="20" viewBox="0 0 19.999 20">
  <path id="Path_38" data-name="Path 38" d="M-878,4221a3,3,0,0,1-3-3l-.858-10.3h-1.292a.85.85,0,0,1-.85-.851.85.85,0,0,1,.85-.85H-879a5.006,5.006,0,0,1,5-5,5.006,5.006,0,0,1,5,5h4.149a.85.85,0,0,1,.85.85.85.85,0,0,1-.85.851h-1.292L-867,4218a3,3,0,0,1-3,3Zm-1.3-3a1.3,1.3,0,0,0,1.3,1.3h8a1.3,1.3,0,0,0,1.3-1.3l1-10.3h-12.6Zm8.6-12a3.276,3.276,0,0,0-.967-2.333A3.276,3.276,0,0,0-874,4202.7a3.3,3.3,0,0,0-3.3,3.3Z" transform="translate(884 -4201)" fill="#fff"/>
</svg>
