<svg xmlns="http://www.w3.org/2000/svg" width="20" height="20" viewBox="0 0 20 20">
  <g id="Group_667" data-name="Group 667" transform="translate(-178 -34)">
    <circle id="Ellipse_31" data-name="Ellipse 31" cx="10" cy="10" r="10" transform="translate(178 34)" fill="#414141"/>
    <path id="Path_57" data-name="Path 57" d="M-8928.875-8131.095l-2.125-2.093-2.126,2.093a.333.333,0,0,1-.467,0l-.311-.309a.32.32,0,0,1,0-.46l2.16-2.136-2.16-2.135a.322.322,0,0,1,0-.462l.311-.308a.334.334,0,0,1,.467,0l2.126,2.092,2.125-2.092a.332.332,0,0,1,.466,0l.311.308a.322.322,0,0,1,0,.462l-2.159,2.135,2.159,2.136a.32.32,0,0,1,0,.46l-.311.309a.332.332,0,0,1-.232.1A.332.332,0,0,1-8928.875-8131.095Z" transform="translate(9119 8178)" fill="#fff"/>
  </g>
</svg>
