<svg xmlns="http://www.w3.org/2000/svg" width="17" height="17" viewBox="0 0 17 17">
  <g id="Group_668" data-name="Group 668" transform="translate(-178 -34)">
    <circle id="Ellipse_31" data-name="Ellipse 31" cx="8.5" cy="8.5" r="8.5" transform="translate(178 34)" fill="#fff"/>
    <path id="Path_57" data-name="Path 57" d="M-8928.021-8130.112l-2.479-2.441-2.479,2.441a.388.388,0,0,1-.545,0l-.362-.359a.374.374,0,0,1,0-.537l2.521-2.491-2.521-2.49a.377.377,0,0,1,0-.539l.362-.358a.389.389,0,0,1,.545,0l2.479,2.439,2.479-2.439a.388.388,0,0,1,.544,0l.362.358a.377.377,0,0,1,0,.539l-2.52,2.49,2.52,2.491a.374.374,0,0,1,0,.537l-.362.359a.389.389,0,0,1-.271.112A.388.388,0,0,1-8928.021-8130.112Z" transform="translate(9117 8176)" fill="#dd2b1c"/>
  </g>
</svg>
