<svg xmlns="http://www.w3.org/2000/svg" width="20" height="20" viewBox="0 0 20 20">
  <path id="Path_41" data-name="Path 41" d="M-6573,3429a4.007,4.007,0,0,1-3.993-3.747.728.728,0,0,1-.006-.1v-.036c0-.038,0-.076,0-.114h0v-1.149a.849.849,0,0,1,.85-.85.85.85,0,0,1,.85.85v1.231a2.28,2.28,0,0,0,.673,1.543,2.285,2.285,0,0,0,1.626.675h12a2.3,2.3,0,0,0,2.3-2.3v-1.149a.85.85,0,0,1,.85-.85.849.849,0,0,1,.85.85v1.3a1.1,1.1,0,0,1-.008.129A4.007,4.007,0,0,1-6561,3429Zm4.486-6.515-1.974-1.974c-.015-.013-.03-.026-.044-.041l-2.167-2.167a.852.852,0,0,1,0-1.2.85.85,0,0,1,1.2,0l.777.778v0l2.72,2.72v-10.746a.85.85,0,0,1,.85-.85.851.851,0,0,1,.85.85V3420.7l2.945-2.946.008.008.657-.659a.852.852,0,0,1,1.2,0,.851.851,0,0,1,0,1.2l-2.168,2.167a.771.771,0,0,1-.1.087l-1.928,1.928a2,2,0,0,1-1.415.584A1.99,1.99,0,0,1-6568.513,3422.486Z" transform="translate(6577 -3409.001)" fill="#6d6d6d"/>
</svg>
