<svg xmlns="http://www.w3.org/2000/svg" width="16" height="20" viewBox="0 0 16 20">
  <path id="Path_39" data-name="Path 39" d="M-6576.319,3160.325a2.279,2.279,0,0,1-.682-1.623v-15.4a2.272,2.272,0,0,1,.683-1.623,2.329,2.329,0,0,1,1.642-.675h7.655a1.272,1.272,0,0,1,.893.366l4.756,4.7a1.241,1.241,0,0,1,.371.882V3158.7a2.273,2.273,0,0,1-.682,1.623,2.325,2.325,0,0,1-1.644.673l-11.35,0A2.337,2.337,0,0,1-6576.319,3160.325Zm1.285-17.384a.5.5,0,0,0-.151.356v15.4a.5.5,0,0,0,.151.356.506.506,0,0,0,.36.149h11.348a.512.512,0,0,0,.36-.149.5.5,0,0,0,.149-.356v-11.008h-3.347a1.617,1.617,0,0,1-1.144-.468,1.575,1.575,0,0,1-.474-1.128v-3.306h-6.893A.506.506,0,0,0-6575.034,3142.941Zm9.069,2.961h1.865l-1.865-1.842Z" transform="translate(6577 -3141)" fill="#6d6d6d"/>
</svg>
