<svg xmlns="http://www.w3.org/2000/svg" width="20.001" height="18.001" viewBox="0 0 20.001 18.001">
  <path id="Path_49" data-name="Path 49" d="M9019-2247a4,4,0,0,1,4-4,4,4,0,0,1,4,3.891,3.89,3.89,0,0,0-.122-.891H9035a1,1,0,0,1,1,1,1,1,0,0,1-1,1h-8.125c.013-.05.023-.1.034-.15A4,4,0,0,1,9023-2243,4,4,0,0,1,9019-2247Zm2,0a2,2,0,0,0,2,2,2,2,0,0,0,2-2,2,2,0,0,0-2-2A2,2,0,0,0,9021-2247Zm5.919.811s0-.006,0-.009S9026.92-2246.192,9026.92-2246.189Zm.068-.486a.02.02,0,0,1,0-.009A.016.016,0,0,0,9026.988-2246.675Zm.014-.381a.1.1,0,0,0,0-.03A.1.1,0,0,1,9027-2247.056Zm-7.876,1.057H9017a1,1,0,0,1-1-1,1,1,0,0,1,1-1h2.127a3.973,3.973,0,0,0-.127,1,4,4,0,0,0,.127,1Zm5.9-10.527a4.387,4.387,0,0,0,.1.526H9017a1,1,0,0,1-1-1,1,1,0,0,1,1-1h8.123a4.206,4.206,0,0,0-.089.468A4,4,0,0,1,9029-2261a4,4,0,0,1,4,4,4,4,0,0,1-4,4A4,4,0,0,1,9025.028-2256.526ZM9027-2257a2,2,0,0,0,2,2,2,2,0,0,0,2-2,2,2,0,0,0-2-2A2,2,0,0,0,9027-2257Zm-1.989.327v0Zm-.007-.129v0Zm0-.12v0Zm0-.134v0Zm7.876,1.057h0a4,4,0,0,0,.127-1,3.973,3.973,0,0,0-.127-1H9035a1,1,0,0,1,1,1,1,1,0,0,1-1,1Z" transform="translate(-9016.001 2261.001)" fill="#fff"/>
</svg>
