<svg xmlns="http://www.w3.org/2000/svg" width="33" height="30" viewBox="0 0 33 30">
  <path id="Path_24" data-name="Path 24" d="M-4905.444-6884a.564.564,0,0,1-.257-.074.442.442,0,0,0-.041-.02h-.031l-.042-.015a24.972,24.972,0,0,1-8.97-5.435,22.271,22.271,0,0,1-4.894-7.047,29.323,29.323,0,0,1-2.3-12.662v-.084a1.321,1.321,0,0,1,1.067-1.105l15.065-3.558h.53l.026.007,15.412,3.458a.367.367,0,0,1,.211.092h.036a.689.689,0,0,1,.464.262l.077.077v.184a.426.426,0,0,0,.019.041.553.553,0,0,1,.074.256v.122a.345.345,0,0,1-.186.269v20.482a1.167,1.167,0,0,1-.956,1.188l-15.082,3.562Zm1.388-20.741v17.819l12.658-2.968v-18Zm-2.4,17.568v-17.751l-13.033-2.971C-4919.418-6900.864-4917.052-6891.725-4906.454-6887.174Zm-8.743-22.259,10.261,2.361a.355.355,0,0,1,.188.076l9.466-2.333-10.256-2.276Z" transform="translate(4922 6914)" fill="#dd2b1c"/>
</svg>
