<svg xmlns="http://www.w3.org/2000/svg" width="30" height="30" viewBox="0 0 30 30">
  <path id="Path_30" data-name="Path 30" d="M-4467.748-6660a4.87,4.87,0,0,1-4.845-4.882v-.088a5.649,5.649,0,0,1-3-1.319,4.489,4.489,0,0,1-1.428-3.342h-.069a4.883,4.883,0,0,1-4.907-4.847v-10.675a4.886,4.886,0,0,1,4.915-4.847h10.763a4.888,4.888,0,0,1,4.914,4.762,4.786,4.786,0,0,1,4.937,4.889,4.941,4.941,0,0,1,3.014,1.378,4.755,4.755,0,0,1,1.458,3.448v10.641a4.888,4.888,0,0,1-4.881,4.882Zm-2.232-15.509v10.641a2.252,2.252,0,0,0,2.232,2.266h10.859a2.27,2.27,0,0,0,2.268-2.266v-10.649a2.263,2.263,0,0,0-2.26-2.26h-10.867A2.253,2.253,0,0,0-4469.98-6675.508Zm-4.458-4.889v10.669a1.979,1.979,0,0,0,1.846,2.12v-7.908a4.814,4.814,0,0,1,1.427-3.42,4.807,4.807,0,0,1,3.42-1.427h8.667v-.034a2.252,2.252,0,0,0-2.268-2.232h-10.8A2.267,2.267,0,0,0-4474.438-6680.4Zm-4.942-4.749v10.667a2.268,2.268,0,0,0,2.294,2.234h.07v-8.152a4.87,4.87,0,0,1,4.88-4.847h8.106a2.273,2.273,0,0,0-2.292-2.137h-10.765A2.268,2.268,0,0,0-4479.381-6685.146Z" transform="translate(4482 6690)" fill="#dd2b1c"/>
</svg>
