<svg xmlns="http://www.w3.org/2000/svg" width="19" height="30" viewBox="0 0 19 30">
  <path id="Path_27" data-name="Path 27" d="M-4474.679-7332.05l-.016-.006a1.379,1.379,0,0,1-.987-1.335v-10.4h-4.939a1.37,1.37,0,0,1-1.211-.729,1.4,1.4,0,0,1,.056-1.421l9.926-15.424a1.374,1.374,0,0,1,1.157-.631,1.356,1.356,0,0,1,.388.056,1.379,1.379,0,0,1,.989,1.335v10.4h4.939a1.377,1.377,0,0,1,1.209.722,1.411,1.411,0,0,1-.054,1.429l-9.926,15.423a1.379,1.379,0,0,1-1.157.631A1.5,1.5,0,0,1-4474.679-7332.05Zm-3.4-14.526h3.778a1.386,1.386,0,0,1,1.378,1.391v7.1l6.01-9.339h-3.777a1.386,1.386,0,0,1-1.378-1.391v-7.1Z" transform="translate(4482 7362)" fill="#dd2b1c"/>
</svg>
