<svg xmlns="http://www.w3.org/2000/svg" width="29" height="30" viewBox="0 0 29 30">
  <path id="Path_29" data-name="Path 29" d="M-4455.787-7556.215l-3.879-2.737a1.168,1.168,0,0,1-.321-.333l-3.624-5.692h-5.879l-3.626,5.692a1.214,1.214,0,0,1-.319.333l-3.877,2.735a1.174,1.174,0,0,1-.683.217,1.175,1.175,0,0,1-.65-.195,1.2,1.2,0,0,1-.521-1.221l.862-4.7a1.218,1.218,0,0,1,.17-.433l1.55-2.429h-2.326a1.188,1.188,0,0,1-.756-.273l-1.9-1.57a1.2,1.2,0,0,1-.436-.927,1.2,1.2,0,0,1,.436-.925l1.9-1.571a1.183,1.183,0,0,1,.756-.272h5.854l2.958-4.642-4.48-7.031a1.2,1.2,0,0,1-.161-.9,1.189,1.189,0,0,1,.516-.751l3.016-1.965a1.185,1.185,0,0,1,.647-.194,1.179,1.179,0,0,1,1,.553l3.01,4.719,3.008-4.721a1.184,1.184,0,0,1,1-.551,1.189,1.189,0,0,1,.647.192l3.015,1.965a1.2,1.2,0,0,1,.518.751,1.2,1.2,0,0,1-.163.9l-4.48,7.031,2.958,4.642h5.854a1.179,1.179,0,0,1,.84.349,1.2,1.2,0,0,1,.35.852v3.141a1.2,1.2,0,0,1-1.191,1.2h-2.323l1.55,2.435a1.182,1.182,0,0,1,.169.432l.862,4.7a1.194,1.194,0,0,1-.523,1.222,1.189,1.189,0,0,1-.648.192A1.174,1.174,0,0,1-4455.787-7556.215Zm-2.319-4.562,1.3.918-.292-1.589-2.25-3.529h-1.438Zm-9.573-13.739a.337.337,0,0,1-.02.031l-8.307,13.037-.292,1.589,1.3-.918,7.444-11.686a.082.082,0,0,0,.013-.018l6.37-10-1.016-.663Zm-11.256,6.77.452.374h3.423l.478-.749h-3.9Zm10.972.372h12.582v-.747h-12.105Zm2.828-4.436.824,1.294h1.438l-1.542-2.423Zm-6.8-10.669,3.25,5.1.72-1.129-2.954-4.635Z" transform="translate(4482.001 7586)" fill="#dd2b1c"/>
</svg>
