<svg xmlns="http://www.w3.org/2000/svg" width="31" height="30" viewBox="0 0 31 30">
  <path id="Path_26" data-name="Path 26" d="M190.815,107.754a.453.453,0,0,0,0-.093,1.246,1.246,0,0,0-.079-.279l-4.063-9.5a3.106,3.106,0,0,0-2.851-1.892h-17a3.107,3.107,0,0,0-2.851,1.892l-4.063,9.5a1.246,1.246,0,0,0-.078.279.453.453,0,0,0,0,.093.8.8,0,0,0,0,.136v14.989a3.131,3.131,0,0,0,3.1,3.112h24.775a3.131,3.131,0,0,0,3.122-3.126V107.876a.819.819,0,0,0-.014-.121Zm-6.522-8.887,3.286,7.73H176.61V98.582h7.206a.506.506,0,0,1,.478.286Zm-17.947,0a.507.507,0,0,1,.478-.314h7.206V106.6H163.061Zm21.9,24.019a.542.542,0,0,1-.542.535H162.932a.542.542,0,0,1-.542-.535v-13.7H174.03v3.64a1.29,1.29,0,1,0,2.58,0v-3.64h11.639Z" transform="translate(-159.829 -95.991)" fill="#dd2b1c"/>
</svg>
