<svg xmlns="http://www.w3.org/2000/svg" width="38" height="30" viewBox="0 0 38 30">
  <path id="Path_25" data-name="Path 25" d="M-4444.366-7108a13.121,13.121,0,0,1-6.076-1.357,20.672,20.672,0,0,1-4.045-2.893l-.024-.02c-2.2-1.9-4.284-3.684-8.489-3.684-4.105,0-6.175,1.739-8.367,3.581l-.147.125a20.647,20.647,0,0,1-4.046,2.891,13.11,13.11,0,0,1-6.075,1.357H-4482v-2.549h.365a1.011,1.011,0,0,0,.146-.019,1.747,1.747,0,0,1,.241-.028c1.554-.177,2.978-1.54,4.353-4.167a63.05,63.05,0,0,0,3.368-8.673l.043-.127c2.427-7.1,4.936-14.437,10.484-14.437,5.515,0,8.023,7.29,10.441,14.361h0l.086.254a63.592,63.592,0,0,0,3.368,8.63c1.379,2.631,2.809,3.992,4.367,4.162l.04,0,.036.012a.939.939,0,0,0,.294.028h.366V-7108Zm-12.559-9.148a18.742,18.742,0,0,1,3.617,2.53c-.522-.889-1.02-1.815-1.517-2.757-2.08-3.948-4.231-8.031-8.175-8.031a5.969,5.969,0,0,0-4.644,2.387,30.977,30.977,0,0,0-3.511,5.6l-.023.045c-.5.941-.993,1.868-1.517,2.755a18.773,18.773,0,0,1,3.619-2.53A13.118,13.118,0,0,1-4463-7118.5,13.118,13.118,0,0,1-4456.925-7117.149Zm-.027-8.148a16.741,16.741,0,0,1,2.015,2.553,59.951,59.951,0,0,0-3.477-8.774c-1.438-2.646-2.939-3.932-4.586-3.932s-3.149,1.286-4.588,3.932a59.941,59.941,0,0,0-3.474,8.772,16.7,16.7,0,0,1,2.013-2.552,8.178,8.178,0,0,1,6.049-2.66A8.181,8.181,0,0,1-4456.952-7125.3Z" transform="translate(4482 7138.001)" fill="#dd2b1c"/>
</svg>
