<svg xmlns="http://www.w3.org/2000/svg" width="24" height="30" viewBox="0 0 24 30">
  <path id="Path_23" data-name="Path 23" d="M-4463.163-7703.91l-3.491-2.368a17.575,17.575,0,0,1-7.706-14.558v-6.759a1.411,1.411,0,0,1,1.415-1.42h.063a13.033,13.033,0,0,0,9.468-4.168,1.3,1.3,0,0,1,1.037-.474,1.3,1.3,0,0,1,1.039.474,13.032,13.032,0,0,0,9.468,4.168h.063a1.439,1.439,0,0,1,1.447,1.42v6.759a17.486,17.486,0,0,1-7.737,14.558l-3.492,2.368a1.454,1.454,0,0,1-.787.252A1.545,1.545,0,0,1-4463.163-7703.91Zm-8.335-22.3v5.369a14.67,14.67,0,0,0,6.448,12.189l2.673,1.831,2.706-1.831a14.751,14.751,0,0,0,6.448-12.189h.031v-5.369a15.659,15.659,0,0,1-9.154-3.979A15.958,15.958,0,0,1-4471.5-7726.206Z" transform="translate(4474.36 7733.658)" fill="#dd2b1c"/>
</svg>
