<svg xmlns="http://www.w3.org/2000/svg" width="40.001" height="30" viewBox="0 0 40.001 30">
  <g id="iec_icon" data-name="iec icon" transform="translate(-42.999 -823)">
    <rect id="Rectangle_258" data-name="Rectangle 258" width="40" height="30" transform="translate(43 823)" fill="none"/>
    <path id="Path_21" data-name="Path 21" d="M-5564.381-7430.445a9.889,9.889,0,0,1,9.425-10.171,8.641,8.641,0,0,1,7.212,3.521l-1.01.978a7.38,7.38,0,0,0-5.66-3.032c-2.937,0-6.122,1.762-6.122,8.705,0,6.257,3.763,8.434,6.122,8.434,3.82,0,6.38-4.274,6.38-4.274l.962.827a8.39,8.39,0,0,1-7.6,4.843A9.643,9.643,0,0,1-5564.381-7430.445Zm-22.69,9.436v-18.776h4.085v18.776Zm12.416-.026a3.181,3.181,0,0,1-2.97-3v-13.766a2.591,2.591,0,0,1,2.38-2.42h9.952v1.8h-7.369c-1.008,0-.991.844-.991,1.333v4.327c0,.439-.151.951.62.951h5.817v1.421h-5.963c-.491,0-.474.88-.474,1.417v5.133c0,.688.571,1.225,1.772,1.225h6.782v1.586Z" transform="translate(5630.07 8263.616)" fill="#dd2b1c"/>
  </g>
</svg>
