<svg xmlns="http://www.w3.org/2000/svg" width="154.705" height="40" viewBox="0 0 154.705 40">
  <g id="logo" transform="translate(-510 -183)">
    <path id="Path_13" data-name="Path 13" d="M-1910.019-5295.915a10.173,10.173,0,0,1-4.356-1.014,8.269,8.269,0,0,1-3.439-3.045,8.969,8.969,0,0,1-1.312-4.971,10.2,10.2,0,0,1,.977-4.379,7.892,7.892,0,0,1,3.036-3.379,9.485,9.485,0,0,1,5.14-1.3,11.954,11.954,0,0,1,4.226.828v6.438a4.918,4.918,0,0,0-3.612-1.656,3.482,3.482,0,0,0-2.422.882,3.171,3.171,0,0,0-.977,2.484,3.821,3.821,0,0,0,.79,2.376,2.841,2.841,0,0,0,2.422,1.044,6.247,6.247,0,0,0,3.906-1.6l-.187,6.492a15.352,15.352,0,0,1-4.074.8Zm-50.086,0a13.01,13.01,0,0,1-2.693-.293,6.615,6.615,0,0,1-2.5-1.149,6.163,6.163,0,0,1-1.913-2.563,10.836,10.836,0,0,1-.748-4.33v-9.4h6.207v9.458a4.781,4.781,0,0,0,.375,2.244,1.444,1.444,0,0,0,1.365.642,1.922,1.922,0,0,0,1.042-.254,1.4,1.4,0,0,0,.564-.882,7.5,7.5,0,0,0,.16-1.75v-9.458h6.208v9.4a10.074,10.074,0,0,1-1.646,6.1q-1.633,2.214-6.254,2.23Zm33.432-.427v-17.31h6.316v17.31Zm-55.178,0v-17.311h6.237v11.729h6.073v5.583Zm-7.732,0-.536-2.19h-4.682l-.561,2.19H-2002l6.129-17.31h6.93l6.074,17.31Zm-4.2-6.306h2.595l-1.229-5.742h-.135Zm100.854,6.306-.535-2.19h-4.683l-.561,2.19h-6.636l6.127-17.31h6.931l6.074,17.31Zm-4.2-6.306h2.6l-1.229-5.743h-.135Zm-36.766,6.306-.75-6.839-.293-3.178-.775,3.365-1.955,6.652h-3.746l-1.954-6.652-.8-3.365-.267,3.178-.723,6.839h-6.129l2.97-17.31h6.422l2.463,8.79,2.487-8.79h6.422l2.73,17.31Z" transform="translate(2550.212 5497.914)" fill="#fff" stroke="rgba(0,0,0,0)" stroke-width="1"/>
    <path id="Path_12" data-name="Path 12" d="M0,17.609a2.746,2.746,0,0,1,.2-1.078,2.672,2.672,0,0,1,.6-.907l4.421-4.367,0,0,.409-.406.574-.569.563.582.4.413.9.9.562.566-.569.56L6.01,15.329l.511.516,3.847.038,2.021-2,1.578-1.561,2.019-1.992,0-3.842-.513-.516L13.428,8l-.567.561L12.3,7.992l-.893-.9-.414-.372-.639-.575.626-.595.474-.447v0L15.83.778A2.733,2.733,0,0,1,17.726,0a2.612,2.612,0,0,1,1.891.765l4.412,4.451.448.453.562.566-.565.561-.495.492h0l-.856.848-.567.559-.563-.568L19.941,6.061l-.459.453-.005,3.842,2.02,2.037,1.621,1.636,2.015,2.032,3.8,0L29.4,15.6l-2-2.023-.562-.566.569-.562.856-.846.007-.006.505-.487.573-.55.554.564.4.406h0l4.364,4.4a2.588,2.588,0,0,1,.552.83,2.759,2.759,0,0,1,.216.974l.032.831-.835,0L21.328,18.5l-.812-.005.018-.808v-.067h0A2.753,2.753,0,0,0,17.8,14.86h0A2.751,2.751,0,0,0,15.029,17.6v.056l.011.814-.813-.006L.794,18.39l-.779-.006Z" transform="translate(510 183)" fill="#dd2b1c" fill-rule="evenodd"/>
    <text id="Мы_конструируем_будущее" data-name="Мы конструируем будущее" transform="translate(510 209)" fill="#ababab" font-size="10" font-family="SegoeUI-Semibold, Segoe UI" font-weight="600" letter-spacing="0.035em"><tspan x="0" y="11">МЫ КОНСТРУИРУЕМ БУДУЩЕЕ</tspan></text>
  </g>
</svg>
