<svg xmlns="http://www.w3.org/2000/svg" width="20" height="20" viewBox="0 0 20 20">
  <path id="Path_36" data-name="Path 36" d="M8709.173,1960.238A10,10,0,1,1,8713,1961,9.926,9.926,0,0,1,8709.173,1960.238Zm-1.986-15.05a8.219,8.219,0,1,0,5.813-2.407A8.166,8.166,0,0,0,8707.187,1945.188Zm4.154,10.4a1.706,1.706,0,0,1-.858-.233,1.694,1.694,0,0,1-.856-1.491v-5.732a1.716,1.716,0,0,1,2.575-1.489l4.97,2.868a1.719,1.719,0,0,1,0,2.976l-4.97,2.868a1.688,1.688,0,0,1-.858.233Zm.063-1.828,4.784-2.76-4.369-2.524v.011l-.415-.248Z" transform="translate(-8702.998 -1940.999)" fill="#6d6d6d"/>
</svg>
